# xmcd
#
# Track frame offsets:
#	150
#	11629
#	23933
#	36604
#	48967
#	62913
#	72704
#	82849
#	97522
#	106684
#	116220
#	128064
#	141211
#	154262
#	167703
#	177405
#	190240
#	200730
#	214043
#	228606
#	243894
#	255450
#	272202
#	293174
#	303932
#
# Disc length: 4309 seconds
#
# Revision: 1
# Processed by: cddbd v1.5.2PL0 Copyright (c) Steve Scherf et al.
# Submitted via: audiograbber 1.83.01
#
DISCID=6a10d319
DTITLE=Tom T Hall - 50 Greatest Hits CD2
DYEAR=2010
DGENRE=Country
TTITLE0=Ravishing Ruby
TTITLE1=Spokane Motel Blues
TTITLE2=Candy In The Window
TTITLE3=Don't Forget The Coffee Billy Joe
TTITLE4=Watergate Blues
TTITLE5=I Love
TTITLE6=Country Is
TTITLE7=That Song Is Driving Me Crazy
TTITLE8=Sneaky Snake
TTITLE9=I Care
TTITLE10=Deal
TTITLE11=I Like Beer
TTITLE12=Faster Horses (The Cowboy And The Poet)
TTITLE13=Negatory Romance
TTITLE14=Fox On The Run
TTITLE15=It's All In The Game
TTITLE16=Your Man Loves You, Honey
TTITLE17=A Bar With No Beer
TTITLE18=Hello We're Lonely (with Patti Page)
TTITLE19=The Last Of The Drifters (with Johnny Cash)
TTITLE20=Shoe And Dress That Alice Wore
TTITLE21=Redneck Riviera
TTITLE22=Ships Go Out
TTITLE23=Bill Monroe For Breakfast
TTITLE24=The Way I've Always Been
EXTD=
EXTT0=
EXTT1=
EXTT2=
EXTT3=
EXTT4=
EXTT5=
EXTT6=
EXTT7=
EXTT8=
EXTT9=
EXTT10=
EXTT11=
EXTT12=
EXTT13=
EXTT14=
EXTT15=
EXTT16=
EXTT17=
EXTT18=
EXTT19=
EXTT20=
EXTT21=
EXTT22=
EXTT23=
EXTT24=
PLAYORDER=
